<svg xmlns="http://www.w3.org/2000/svg" xmlns:xlink="http://www.w3.org/1999/xlink" width="556" height="633" viewBox="0 0 556 633">
  <defs>
    <clipPath id="clip-path">
      <rect id="Rectangle_223" data-name="Rectangle 223" width="556.39" height="632.894" transform="translate(0 167)" fill="#ffd44c"/>
    </clipPath>
    <clipPath id="clip-Pattern">
      <rect width="556" height="633"/>
    </clipPath>
  </defs>
  <g id="Pattern" clip-path="url(#clip-Pattern)">
    <g id="Mask_Group_4" data-name="Mask Group 4" transform="translate(0 -167)" clip-path="url(#clip-path)">
      <g id="Group_797" data-name="Group 797" transform="translate(-110.893 166.73)">
        <g id="Group_795" data-name="Group 795" transform="translate(5.884 2.758)">
          <path id="Path_2772" data-name="Path 2772" d="M167.9,228.331l116.021,6.252-9.01-74.283Z" transform="translate(134.931 131.683)" fill="none" stroke="#003145" stroke-miterlimit="10" stroke-width="1"/>
          <path id="Path_2773" data-name="Path 2773" d="M118.7,152.3l42.29,164.93,112.344-92.67Z" transform="translate(93.668 124.973)" fill="none" stroke="#003145" stroke-miterlimit="10" stroke-width="1"/>
          <path id="Path_2774" data-name="Path 2774" d="M110.747,59.9c2.206,0,136.43,34.383,136.43,34.383L182.272,229.978,42.9,108.809Z" transform="translate(30.096 47.479)" fill="none" stroke="#003145" stroke-miterlimit="10" stroke-width="1"/>
          <path id="Path_2775" data-name="Path 2775" d="M290.065,145.612,183.605,78.5,118.7,214.195Z" transform="translate(93.668 63.079)" fill="none" stroke="#003145" stroke-miterlimit="10" stroke-width="1"/>
          <path id="Path_2776" data-name="Path 2776" d="M273.333,255.843,118.7,183.583,290.065,115Z" transform="translate(93.668 93.691)" fill="none" stroke="#003145" stroke-linecap="round" stroke-linejoin="round" stroke-miterlimit="10" stroke-width="1"/>
          <path id="Path_2777" data-name="Path 2777" d="M344.069,291.347,237.793,200.7,222.9,268Z" transform="translate(181.059 165.566)" fill="none" stroke="#003145" stroke-miterlimit="10" stroke-width="1"/>
          <path id="Path_2778" data-name="Path 2778" d="M297.551,176.2l46.519,135.695L222.9,288.544Z" transform="translate(181.059 145.018)" fill="none" stroke="#003145" stroke-miterlimit="10" stroke-width="1"/>
          <path id="Path_2779" data-name="Path 2779" d="M185,349.1c3.677,0,191.407,76.673,190.855,74.467s0-173.572,0-173.572Z" transform="translate(149.273 206.913)" fill="none" stroke="#003145" stroke-miterlimit="10" stroke-width="1"/>
          <path id="Path_2780" data-name="Path 2780" d="M77.4,242.212,153.338,152.3l42.29,164.93Z" transform="translate(59.03 124.973)" fill="none" stroke="#003145" stroke-miterlimit="10" stroke-width="1"/>
          <path id="Path_2781" data-name="Path 2781" d="M42.9,86.5,182.272,207.485,66.987,259.336Z" transform="translate(30.096 69.788)" fill="none" stroke="#003145" stroke-linecap="round" stroke-linejoin="round" stroke-miterlimit="10" stroke-width="1"/>
          <path id="Path_2782" data-name="Path 2782" d="M213.575,293.579,62.435,417.69,56,180.5Z" transform="translate(41.082 148.624)" fill="none" stroke="#003145" stroke-miterlimit="10" stroke-width="1"/>
          <path id="Path_2783" data-name="Path 2783" d="M291,275.628,141.7,284.27,254.044,191.6Z" transform="translate(112.958 157.934)" fill="none" stroke="#003145" stroke-linecap="round" stroke-linejoin="round" stroke-miterlimit="10" stroke-width="1"/>
          <path id="Path_2784" data-name="Path 2784" d="M84.2,328.786l185.339,27.029L189.924,242Z" transform="translate(64.733 200.203)" fill="none" stroke="#003145" stroke-miterlimit="10" stroke-width="1"/>
          <path id="Path_2785" data-name="Path 2785" d="M254.841,115l26.109,83.292L160.7,213.553Z" transform="translate(128.893 93.691)" fill="none" stroke="#003145" stroke-miterlimit="10" stroke-width="1"/>
          <path id="Path_2786" data-name="Path 2786" d="M161.967,78.5,144.5,164l123.927-18.387Z" transform="translate(115.306 63.079)" fill="none" stroke="#003145" stroke-linecap="round" stroke-linejoin="round" stroke-miterlimit="10" stroke-width="1"/>
          <path id="Path_2787" data-name="Path 2787" d="M174.287,213.553,144.5,133.387,268.427,115Z" transform="translate(115.306 93.691)" fill="none" stroke="#003145" stroke-miterlimit="10" stroke-width="1"/>
          <path id="Path_2788" data-name="Path 2788" d="M79.8,59.9,198.763,179.6l-47.438,50.2Z" transform="translate(61.043 47.479)" fill="none" stroke="#003145" stroke-linecap="round" stroke-linejoin="round" stroke-miterlimit="10" stroke-width="1"/>
          <path id="Path_2789" data-name="Path 2789" d="M268.692,301.879,168.3,228.147,274.576,160.3Z" transform="translate(135.267 131.683)" fill="none" stroke="#003145" stroke-miterlimit="10" stroke-width="1"/>
          <path id="Path_2790" data-name="Path 2790" d="M276.957,347.437,222.9,237.3l121.169,23.351Z" transform="translate(181.059 196.261)" fill="none" stroke="#003145" stroke-miterlimit="10" stroke-width="1"/>
          <path id="Path_2791" data-name="Path 2791" d="M190.609,197.2,141.7,279.573,291,270.931Z" transform="translate(112.958 162.63)" fill="none" stroke="#003145" stroke-miterlimit="10" stroke-width="1"/>
          <path id="Path_2792" data-name="Path 2792" d="M189.924,242l56.264,215.31L84.2,328.786Z" transform="translate(64.733 200.203)" fill="none" stroke="#003145" stroke-miterlimit="10" stroke-width="1"/>
          <path id="Path_2793" data-name="Path 2793" d="M3.2,203.1S38.87,381.82,41.077,381.82s65.641,16.732,65.641,16.732Z" transform="translate(-3.2 167.578)" fill="none" stroke="#003145" stroke-miterlimit="10" stroke-width="1"/>
          <path id="Path_2794" data-name="Path 2794" d="M262.484,221.186,56,190.48,248.51,168.6Z" transform="translate(41.082 138.644)" fill="none" stroke="#003145" stroke-miterlimit="10" stroke-width="1"/>
          <path id="Path_2795" data-name="Path 2795" d="M3.2,222.054,100.282,180.5l39.348,38.061Z" transform="translate(-3.2 148.624)" fill="none" stroke="#003145" stroke-miterlimit="10" stroke-width="1"/>
          <path id="Path_2796" data-name="Path 2796" d="M76.2,86.5,3.2,300.891l97.082-41.554Z" transform="translate(-3.2 69.788)" fill="none" stroke="#003145" stroke-linecap="round" stroke-linejoin="round" stroke-miterlimit="10" stroke-width="1"/>
          <path id="Path_2797" data-name="Path 2797" d="M430.152,65.238,335.643,17.8l-50.38,115.285,1.1,63.435H211.9" transform="translate(171.833 12.171)" fill="none" stroke="#003145" stroke-miterlimit="10" stroke-width="1"/>
          <path id="Path_2798" data-name="Path 2798" d="M213.815,13.8l38.8,125.582L122.8,34.393Z" transform="translate(97.106 8.816)" fill="none" stroke="#003145" stroke-miterlimit="10" stroke-width="1"/>
          <path id="Path_2799" data-name="Path 2799" d="M279.328,31.471,212.4,1.5l45.048,107.379Z" transform="translate(172.252 -1.5)" fill="none" stroke="#003145" stroke-miterlimit="10" stroke-width="1"/>
          <path id="Path_2800" data-name="Path 2800" d="M432.645,98.4,394.4,116.787l63.986,20.226Z" transform="translate(324.893 79.768)" fill="none" stroke="#003145" stroke-miterlimit="10" stroke-width="1"/>
          <path id="Path_2801" data-name="Path 2801" d="M379.521,107.015,314.064,55.9,263.5,107.015Z" transform="translate(269.109 63.124)" fill="none" stroke="#003145" stroke-miterlimit="10" stroke-width="1"/>
          <path id="Path_2802" data-name="Path 2802" d="M411.563,38.825,363.758,1.5,326.8,38.825Z" transform="translate(268.198 -1.5)" fill="none" stroke="#003145" stroke-miterlimit="10" stroke-width="1"/>
          <path id="Path_2803" data-name="Path 2803" d="M416.312,104.186,424.219,51.6,372,34.5Z" transform="translate(306.106 26.177)" fill="none" stroke="#003145" stroke-miterlimit="10" stroke-width="1"/>
          <path id="Path_2804" data-name="Path 2804" d="M388.056,165.535,319.289,113.5,265.6,155.054Z" transform="translate(216.87 92.433)" fill="none" stroke="#003145" stroke-miterlimit="10" stroke-width="1"/>
          <path id="Path_2805" data-name="Path 2805" d="M316.964,244.047l13.055-66.928L283.5,176.2Z" transform="translate(231.883 145.018)" fill="none" stroke="#003145" stroke-miterlimit="10" stroke-width="1"/>
          <path id="Path_2806" data-name="Path 2806" d="M373.209,120.6l6.619,28.5L352.8,134.758Z" transform="translate(290.004 98.387)" fill="none" stroke="#003145" stroke-miterlimit="10" stroke-width="1"/>
          <path id="Path_2807" data-name="Path 2807" d="M406.2,239.7l28.867,4.964-23.535,19.49Z" transform="translate(334.789 198.274)" fill="none" stroke="#003145" stroke-miterlimit="10" stroke-width="1"/>
          <path id="Path_2808" data-name="Path 2808" d="M443.4,83.7l28.683,4.781-23.535,19.49Z" transform="translate(365.988 67.44)" fill="none" stroke="#003145" stroke-miterlimit="10" stroke-width="1"/>
          <path id="Path_2809" data-name="Path 2809" d="M419.044,303.105,386.867,215.4,340.9,274.973Z" transform="translate(280.023 177.894)" fill="none" stroke="#003145" stroke-miterlimit="10" stroke-width="1"/>
          <path id="Path_2810" data-name="Path 2810" d="M402.4,258.986l122.272-21.88L454.067,166.5Z" transform="translate(331.602 136.883)" fill="none" stroke="#003145" stroke-miterlimit="10" stroke-width="1"/>
          <path id="Path_2811" data-name="Path 2811" d="M288.8,331.1l56.448-72.26,8.09,82.005,53.138-155,46.7-32.545" transform="translate(236.328 125.812)" fill="none" stroke="#003145" stroke-miterlimit="10" stroke-width="1"/>
          <path id="Path_2812" data-name="Path 2812" d="M257.858,274.625,3.2,203.1,152.133,361.411Z" transform="translate(-3.2 167.578)" fill="none" stroke="#003145" stroke-linecap="round" stroke-linejoin="round" stroke-miterlimit="10" stroke-width="1"/>
          <path id="Path_2813" data-name="Path 2813" d="M23.8,346.024,78.593,246,89.441,362.756Z" transform="translate(14.077 203.558)" fill="none" stroke="#003145" stroke-miterlimit="10" stroke-width="1"/>
          <path id="Path_2814" data-name="Path 2814" d="M59.5,326.525l80.9,71.341L104.915,289.2Z" transform="translate(44.018 239.789)" fill="none" stroke="#003145" stroke-miterlimit="10" stroke-width="1"/>
          <path id="Path_2815" data-name="Path 2815" d="M53.6,246l114.918,70.238L64.448,362.756Z" transform="translate(39.07 203.558)" fill="none" stroke="#003145" stroke-miterlimit="10" stroke-width="1"/>
          <path id="Path_2816" data-name="Path 2816" d="M3.2,203.1l92.67,78.879L41.077,382Z" transform="translate(-3.2 167.578)" fill="none" stroke="#003145" stroke-miterlimit="10" stroke-width="1"/>
          <path id="Path_2817" data-name="Path 2817" d="M226.444,98.37,154,91.751,161.539,62.7Z" transform="translate(123.273 49.827)" fill="none" stroke="#003145" stroke-linecap="round" stroke-linejoin="round" stroke-miterlimit="10" stroke-width="1"/>
          <path id="Path_2818" data-name="Path 2818" d="M291,237.3l-149.3,8.642,56.264,215.31Z" transform="translate(112.958 196.261)" fill="none" stroke="#003145" stroke-linecap="round" stroke-linejoin="round" stroke-miterlimit="10" stroke-width="1"/>
          <path id="Path_2819" data-name="Path 2819" d="M295.051,189.719,235.11,234.583,226.1,160.3Z" transform="translate(183.742 131.683)" fill="none" stroke="#003145" stroke-miterlimit="10" stroke-width="1"/>
          <path id="Path_2820" data-name="Path 2820" d="M314.592,189.719,202.8,217.851,245.641,160.3Z" transform="translate(164.201 131.683)" fill="none" stroke="#003145" stroke-linecap="round" stroke-linejoin="round" stroke-miterlimit="10" stroke-width="1"/>
          <path id="Path_2821" data-name="Path 2821" d="M243.8,197.3,77.4,204.471,136.606,294.2Z" transform="translate(59.03 162.714)" fill="none" stroke="#003145" stroke-miterlimit="10" stroke-width="1"/>
          <path id="Path_2822" data-name="Path 2822" d="M121.551,319.592,109.6,256.71,168.622,242Z" transform="translate(86.036 200.203)" fill="none" stroke="#003145" stroke-miterlimit="10" stroke-width="1"/>
          <path id="Path_2823" data-name="Path 2823" d="M53.6,246l102.966,7.355,11.951,62.883Z" transform="translate(39.07 203.558)" fill="none" stroke="#003145" stroke-miterlimit="10" stroke-width="1"/>
          <path id="Path_2824" data-name="Path 2824" d="M97.361,201.2,53.6,283.573l102.966,7.355Z" transform="translate(39.07 165.985)" fill="none" stroke="#003145" stroke-miterlimit="10" stroke-width="1"/>
          <path id="Path_2825" data-name="Path 2825" d="M216.23,94.1l-78.88,58.654L79.8,59.9Z" transform="translate(61.043 47.479)" fill="none" stroke="#003145" stroke-miterlimit="10" stroke-width="1"/>
          <path id="Path_2826" data-name="Path 2826" d="M42.9,86.5l125.4,43.945L66.987,259.336Z" transform="translate(30.096 69.788)" fill="none" stroke="#003145" stroke-miterlimit="10" stroke-width="1"/>
          <path id="Path_2827" data-name="Path 2827" d="M172.512,137.245,111.1,110.4l13.974,77.041Z" transform="translate(87.294 89.833)" fill="none" stroke="#003145" stroke-miterlimit="10" stroke-width="1"/>
          <path id="Path_2828" data-name="Path 2828" d="M254.686,237.3l54.057,110.137L185,359.756Z" transform="translate(149.273 196.261)" fill="none" stroke="#003145" stroke-miterlimit="10" stroke-width="1"/>
          <path id="Path_2829" data-name="Path 2829" d="M375.855,383.986,308.743,297.2,185,309.519Z" transform="translate(149.273 246.499)" fill="none" stroke="#003145" stroke-miterlimit="10" stroke-width="1"/>
          <path id="Path_2830" data-name="Path 2830" d="M116.1,319.592l126.685,36.222L163.17,242Z" transform="translate(91.487 200.203)" fill="none" stroke="#003145" stroke-miterlimit="10" stroke-width="1"/>
          <line id="Line_87" data-name="Line 87" x1="144" y2="67" transform="translate(457.509 78.012)" fill="none" stroke="#003145" stroke-width="1"/>
          <path id="Path_2831" data-name="Path 2831" d="M457.509,145.012l-74.528,64.772" fill="none" stroke="#003145" stroke-width="1"/>
        </g>
        <g id="Group_796" data-name="Group 796" transform="translate(0)">
          <circle id="Ellipse_66" data-name="Ellipse 66" cx="3.677" cy="3.677" r="3.677" transform="translate(279.848 140.659)" fill="#003145"/>
          <path id="Path_2832" data-name="Path 2832" d="M209.5,117.313a4.413,4.413,0,1,0,4.413-4.413A4.249,4.249,0,0,0,209.5,117.313Z" transform="translate(175.704 94.687)" fill="#003145"/>
          <circle id="Ellipse_67" data-name="Ellipse 67" cx="6.252" cy="6.252" r="6.252" transform="translate(0 369.024)" fill="#003145"/>
          <path id="Path_2833" data-name="Path 2833" d="M261.3,178.234a4.229,4.229,0,1,0,4.229-4.229A4.054,4.054,0,0,0,261.3,178.234Z" transform="translate(219.148 145.926)" fill="#003145"/>
          <circle id="Ellipse_68" data-name="Ellipse 68" cx="5.516" cy="5.516" r="5.516" transform="translate(403.775 430.62)" fill="#003145"/>
          <circle id="Ellipse_69" data-name="Ellipse 69" cx="5.516" cy="5.516" r="5.516" transform="translate(334.64 553.26)" fill="#003145"/>
          <circle id="Ellipse_70" data-name="Ellipse 70" cx="2.758" cy="2.758" r="2.758" transform="translate(305.957 360.014)" fill="#003145"/>
          <path id="Path_2834" data-name="Path 2834" d="M75.9,202.466a2.758,2.758,0,0,0,5.516,0,2.828,2.828,0,0,0-2.758-2.758A2.6,2.6,0,0,0,75.9,202.466Z" transform="translate(63.656 167.477)" fill="#003145"/>
          <circle id="Ellipse_71" data-name="Ellipse 71" cx="2.758" cy="2.758" r="2.758" transform="translate(421.978 366.266)" fill="#003145"/>
          <path id="Path_2835" data-name="Path 2835" d="M224.5,161.558a2.708,2.708,0,0,0,2.758,2.758,2.828,2.828,0,0,0,2.758-2.758,2.758,2.758,0,0,0-5.516,0Z" transform="translate(188.284 133.183)" fill="#003145"/>
          <path id="Path_2836" data-name="Path 2836" d="M317.6,212.758A2.758,2.758,0,1,0,320.358,210,2.828,2.828,0,0,0,317.6,212.758Z" transform="translate(266.366 176.123)" fill="#003145"/>
          <circle id="Ellipse_72" data-name="Ellipse 72" cx="2.758" cy="2.758" r="2.758" transform="translate(702.193 481.735)" fill="#003145"/>
          <circle id="Ellipse_73" data-name="Ellipse 73" cx="2.758" cy="2.758" r="2.758" transform="translate(645.929 312.944)" fill="#003145"/>
          <path id="Path_2837" data-name="Path 2837" d="M322.1,256.658a2.758,2.758,0,1,0,2.758-2.758A2.828,2.828,0,0,0,322.1,256.658Z" transform="translate(270.14 212.942)" fill="#003145"/>
          <path id="Path_2838" data-name="Path 2838" d="M250.3,116.566a2.758,2.758,0,0,0,5.516,0,2.828,2.828,0,0,0-2.758-2.758A2.6,2.6,0,0,0,250.3,116.566Z" transform="translate(209.922 95.434)" fill="#003145"/>
          <path id="Path_2839" data-name="Path 2839" d="M307.3,178.766a2.758,2.758,0,1,0,2.758-2.758A2.6,2.6,0,0,0,307.3,178.766Z" transform="translate(257.727 147.6)" fill="#003145"/>
          <circle id="Ellipse_74" data-name="Ellipse 74" cx="2.758" cy="2.758" r="2.758" transform="translate(608.052 257.967)" fill="#003145"/>
          <path id="Path_2840" data-name="Path 2840" d="M250.3,81.766a2.758,2.758,0,1,0,2.758-2.758A2.6,2.6,0,0,0,250.3,81.766Z" transform="translate(209.922 66.248)" fill="#003145"/>
          <path id="Path_2841" data-name="Path 2841" d="M121.3,26.058a2.758,2.758,0,1,0,5.516,0,2.758,2.758,0,1,0-5.516,0Z" transform="translate(101.732 19.541)" fill="#003145"/>
          <circle id="Ellipse_75" data-name="Ellipse 75" cx="2.758" cy="2.758" r="2.758" transform="translate(387.778)" fill="#003145"/>
          <circle id="Ellipse_76" data-name="Ellipse 76" cx="2.758" cy="2.758" r="2.758" transform="translate(510.602 29.971)" fill="#003145"/>
          <circle id="Ellipse_77" data-name="Ellipse 77" cx="2.758" cy="2.758" r="2.758" transform="translate(605.602 77.971)" fill="#003145"/>
          <circle id="Ellipse_78" data-name="Ellipse 78" cx="2.758" cy="2.758" r="2.758" transform="translate(534.602 169.971)" fill="#003145"/>
          <circle id="Ellipse_79" data-name="Ellipse 79" cx="2.758" cy="2.758" r="2.758" transform="translate(635.602 -0.029)" fill="#003145"/>
          <path id="Path_2842" data-name="Path 2842" d="M287.2,345.658a2.758,2.758,0,1,0,2.758-2.758A2.828,2.828,0,0,0,287.2,345.658Z" transform="translate(240.87 287.584)" fill="#003145"/>
          <circle id="Ellipse_80" data-name="Ellipse 80" cx="2.758" cy="2.758" r="2.758" transform="translate(293.27 307.244)" fill="#003145"/>
          <circle id="Ellipse_81" data-name="Ellipse 81" cx="2.758" cy="2.758" r="2.758" transform="translate(201.52 200.233)" fill="#003145"/>
          <circle id="Ellipse_82" data-name="Ellipse 82" cx="2.758" cy="2.758" r="2.758" transform="translate(198.762 456.913)" fill="#003145"/>
          <path id="Path_2843" data-name="Path 2843" d="M250.7,298.458a2.708,2.708,0,0,0,2.758,2.758,2.828,2.828,0,0,0,2.758-2.758,2.708,2.708,0,0,0-2.758-2.758A2.828,2.828,0,0,0,250.7,298.458Z" transform="translate(210.258 247.999)" fill="#003145"/>
          <circle id="Ellipse_83" data-name="Ellipse 83" cx="2.758" cy="2.758" r="2.758" transform="translate(210.345 519.796)" fill="#003145"/>
          <path id="Path_2844" data-name="Path 2844" d="M169.2,360.358a2.758,2.758,0,1,0,2.758-2.758A2.708,2.708,0,0,0,169.2,360.358Z" transform="translate(141.905 299.913)" fill="#003145"/>
          <path id="Path_2845" data-name="Path 2845" d="M52.1,247.258a2.708,2.708,0,0,0,2.758,2.758,2.828,2.828,0,0,0,2.758-2.758,2.708,2.708,0,0,0-2.758-2.758A2.828,2.828,0,0,0,52.1,247.258Z" transform="translate(43.695 205.058)" fill="#003145"/>
          <circle id="Ellipse_84" data-name="Ellipse 84" cx="5.516" cy="5.516" r="5.516" transform="translate(213.103 275.435)" fill="#003145"/>
          <circle id="Ellipse_85" data-name="Ellipse 85" cx="5.516" cy="5.516" r="5.516" transform="translate(367.369 346.776)" fill="#003145"/>
          <circle id="Ellipse_86" data-name="Ellipse 86" cx="5.516" cy="5.516" r="5.516" transform="translate(97.45 326.366)" fill="#003145"/>
          <circle id="Ellipse_87" data-name="Ellipse 87" cx="5.516" cy="5.516" r="5.516" transform="translate(255.025 439.445)" fill="#003145"/>
          <circle id="Ellipse_88" data-name="Ellipse 88" cx="5.516" cy="5.516" r="5.516" transform="translate(149.301 528.07)" fill="#003145"/>
          <circle id="Ellipse_89" data-name="Ellipse 89" cx="5.516" cy="5.516" r="5.516" transform="translate(260.909 224.687)" fill="#003145"/>
          <path id="Path_2846" data-name="Path 2846" d="M286.2,252.029a4.229,4.229,0,1,0,4.229-4.229A4.161,4.161,0,0,0,286.2,252.029Z" transform="translate(240.031 207.826)" fill="#003145"/>
          <path id="Path_2847" data-name="Path 2847" d="M41.1,87.894A3.494,3.494,0,1,0,44.593,84.4,3.381,3.381,0,0,0,41.1,87.894Z" transform="translate(34.47 70.785)" fill="#003145"/>
          <path id="Path_2848" data-name="Path 2848" d="M77.9,61.5a3.494,3.494,0,1,0,3.494-3.494A3.281,3.281,0,0,0,77.9,61.5Z" transform="translate(65.333 48.637)" fill="#003145"/>
        </g>
      </g>
    </g>
  </g>
</svg>
