<svg id="Layer_0_Image" data-name="Layer 0 Image" xmlns="http://www.w3.org/2000/svg" viewBox="0 0 140 33.33"><defs><style>.cls-1{fill:#fff;}</style></defs><title>casepoint web Logo1</title><path class="cls-1" d="M12.12,0V8.33A12.32,12.32,0,0,0,0,20.83a12.31,12.31,0,0,0,12.12,12.5V25A12.32,12.32,0,0,0,24.24,12.5,12.32,12.32,0,0,0,12.12,0Z"/><path class="cls-1" d="M37.89,15.46a2.63,2.63,0,0,0-1-.77,3,3,0,0,0-1.25-.29,2.66,2.66,0,0,0-1.21.28,3.13,3.13,0,0,0-.92.74,3.85,3.85,0,0,0-.6,1.07,3.93,3.93,0,0,0-.22,1.29,4,4,0,0,0,.21,1.3,3.05,3.05,0,0,0,.6,1.07,2.69,2.69,0,0,0,.95.72,2.76,2.76,0,0,0,1.24.27A3.34,3.34,0,0,0,37,20.89a2.44,2.44,0,0,0,1-.73l2.33,2.93a5.29,5.29,0,0,1-2,1.24,7.86,7.86,0,0,1-2.66.45,8.1,8.1,0,0,1-2.82-.47,6.45,6.45,0,0,1-2.28-1.39A6.61,6.61,0,0,1,29,20.72a7.41,7.41,0,0,1-.55-2.94,7.28,7.28,0,0,1,.55-2.9,6.65,6.65,0,0,1,1.52-2.21,6.77,6.77,0,0,1,2.28-1.4,8,8,0,0,1,2.79-.49,7,7,0,0,1,1.37.14,9.34,9.34,0,0,1,1.31.35,6.13,6.13,0,0,1,1.15.56,4.77,4.77,0,0,1,.91.73Z"/><path class="cls-1" d="M50.5,22.64a4.07,4.07,0,0,1-1.75,1.55,5.59,5.59,0,0,1-2.42.54,5.46,5.46,0,0,1-2.56-.58,5.88,5.88,0,0,1-1.91-1.54,6.87,6.87,0,0,1-1.19-2.24,8.57,8.57,0,0,1,0-5.27,6.89,6.89,0,0,1,1.2-2.2,5.7,5.7,0,0,1,1.9-1.51,5.49,5.49,0,0,1,2.49-.55,4.77,4.77,0,0,1,2.39.55,5.47,5.47,0,0,1,1.51,1.22h0V11.15h4.2V24.36H50.55V22.64Zm-6.2-4.91A4.58,4.58,0,0,0,44.49,19a3.35,3.35,0,0,0,.58,1.09,3,3,0,0,0,1,.77,2.83,2.83,0,0,0,1.3.29,2.77,2.77,0,0,0,1.28-.29,3,3,0,0,0,1-.77A3.5,3.5,0,0,0,50.18,19a3.57,3.57,0,0,0,.22-1.24,3.7,3.7,0,0,0-.84-2.33,3,3,0,0,0-1-.76,2.66,2.66,0,0,0-1.28-.29,2.71,2.71,0,0,0-1.3.29,2.93,2.93,0,0,0-1,.75,3.35,3.35,0,0,0-.58,1.07A4.34,4.34,0,0,0,44.3,17.73Z"/><path class="cls-1" d="M64.3,15.09a4.86,4.86,0,0,0-1.21-.85,3.33,3.33,0,0,0-1.46-.34,2.44,2.44,0,0,0-1.08.24.83.83,0,0,0-.5.82.81.81,0,0,0,.55.79,10.87,10.87,0,0,0,1.78.53,8.22,8.22,0,0,1,1.44.45,5.05,5.05,0,0,1,1.32.76,3.74,3.74,0,0,1,1,1.17,3.44,3.44,0,0,1,.36,1.63,4.13,4.13,0,0,1-.49,2.1,4,4,0,0,1-1.27,1.39,5.43,5.43,0,0,1-1.75.77,8.65,8.65,0,0,1-1.95.23,9.45,9.45,0,0,1-3.06-.51,6.38,6.38,0,0,1-2.49-1.52l2.35-2.56a4.85,4.85,0,0,0,1.38,1,3.68,3.68,0,0,0,1.75.43,2.35,2.35,0,0,0,1-.25.92.92,0,0,0,.5-.89,1,1,0,0,0-.62-.9,11.13,11.13,0,0,0-1.92-.6,9.79,9.79,0,0,1-1.33-.43,4.09,4.09,0,0,1-1.19-.71,3.36,3.36,0,0,1-1.19-2.69,3.85,3.85,0,0,1,.49-2,4.22,4.22,0,0,1,1.25-1.37,5.35,5.35,0,0,1,1.7-.77,7.07,7.07,0,0,1,1.86-.26,8.62,8.62,0,0,1,2.8.47,6.05,6.05,0,0,1,2.32,1.38Z"/><path class="cls-1" d="M80.41,17.94v.53a4,4,0,0,1,0,.5H71.14a2.31,2.31,0,0,0,.32,1,2.85,2.85,0,0,0,.69.78,3.22,3.22,0,0,0,.95.51,3.33,3.33,0,0,0,1.09.19,3.41,3.41,0,0,0,1.69-.39,3.25,3.25,0,0,0,1.12-1L79.92,22a5.94,5.94,0,0,1-2.36,2.08,7.75,7.75,0,0,1-3.42.72,7.93,7.93,0,0,1-2.72-.46A6.61,6.61,0,0,1,69.18,23a6.27,6.27,0,0,1-1.51-2.17,7.48,7.48,0,0,1-.55-3,7.56,7.56,0,0,1,.54-2.92,6.6,6.6,0,0,1,1.46-2.22,6.36,6.36,0,0,1,2.17-1.41A7.19,7.19,0,0,1,74,10.78a6.83,6.83,0,0,1,2.59.49,5.74,5.74,0,0,1,2,1.42,6.61,6.61,0,0,1,1.32,2.24A9.06,9.06,0,0,1,80.41,17.94Zm-3.87-1.66a2.67,2.67,0,0,0-.62-1.77A2.36,2.36,0,0,0,74,13.77a3.1,3.1,0,0,0-1.12.2,2.8,2.8,0,0,0-.9.54,2.55,2.55,0,0,0-.61.81,2.29,2.29,0,0,0-.26,1Z"/><path class="cls-1" d="M110.64,17.73a7.21,7.21,0,0,1-.56,2.92,6.62,6.62,0,0,1-1.53,2.22,6.85,6.85,0,0,1-2.26,1.41,7.7,7.7,0,0,1-5.46,0,6.53,6.53,0,0,1-3.78-3.63,7.21,7.21,0,0,1-.57-2.92,7.11,7.11,0,0,1,.57-2.9,6.41,6.41,0,0,1,1.52-2.2,6.56,6.56,0,0,1,2.26-1.37,8,8,0,0,1,5.46,0,6.75,6.75,0,0,1,2.26,1.37,6.44,6.44,0,0,1,1.53,2.2A7.11,7.11,0,0,1,110.64,17.73Zm-4,0a4,4,0,0,0-.2-1.24,3.59,3.59,0,0,0-.59-1.07,2.93,2.93,0,0,0-1-.75,2.75,2.75,0,0,0-1.31-.29,2.71,2.71,0,0,0-1.3.29,2.79,2.79,0,0,0-.94.75,3.52,3.52,0,0,0-.56,1.07,4.14,4.14,0,0,0,0,2.48,3.41,3.41,0,0,0,.58,1.1,3,3,0,0,0,3.55.78,2.88,2.88,0,0,0,1-.78,3.41,3.41,0,0,0,.58-1.1A4,4,0,0,0,106.6,17.73Z"/><path class="cls-1" d="M116.16,7A2.29,2.29,0,0,1,116,8a2.49,2.49,0,0,1-.51.75,2.38,2.38,0,0,1-.77.5,2.5,2.5,0,0,1-.94.18A2.37,2.37,0,0,1,111.35,7a2.34,2.34,0,0,1,.18-.91,2.17,2.17,0,0,1,.51-.76,2.72,2.72,0,0,1,.77-.51,2.26,2.26,0,0,1,.94-.2,2.32,2.32,0,0,1,.94.19,2.38,2.38,0,0,1,.77.5,2.49,2.49,0,0,1,.51.75A2.26,2.26,0,0,1,116.16,7Zm-4.51,17.35V11.21h4.2V24.36Z"/><path class="cls-1" d="M126.06,24.36V17.18a6.06,6.06,0,0,0-.09-1.06,3.14,3.14,0,0,0-.29-.88,1.55,1.55,0,0,0-.58-.61,1.78,1.78,0,0,0-.93-.23,2.07,2.07,0,0,0-1,.23,2,2,0,0,0-.7.62,2.94,2.94,0,0,0-.43.91,4.18,4.18,0,0,0-.14,1.07v7.13h-4.22V11.21h4.07V13h0a4,4,0,0,1,.6-.83,3.72,3.72,0,0,1,.87-.7,5.63,5.63,0,0,1,1.09-.48,4.26,4.26,0,0,1,1.26-.18,4.67,4.67,0,0,1,2.17.47,4.26,4.26,0,0,1,1.45,1.23,4.8,4.8,0,0,1,.79,1.73,8.23,8.23,0,0,1,.25,2v8.13Z"/><path class="cls-1" d="M137,14.43v5a2.32,2.32,0,0,0,.34,1.39,1.46,1.46,0,0,0,1.24.46,3.88,3.88,0,0,0,.66-.05,2,2,0,0,0,.57-.16l.05,3.17a6.46,6.46,0,0,1-1.1.28,7.48,7.48,0,0,1-1.33.12,6.11,6.11,0,0,1-2.15-.33,3.31,3.31,0,0,1-1.4-1,3.7,3.7,0,0,1-.75-1.48,7.12,7.12,0,0,1-.23-1.92V14.43h-2V11.21h2V7.75H137v3.46h3v3.22Z"/><path class="cls-1" d="M91.59,17.73a4,4,0,0,0-.19-1.24,3.52,3.52,0,0,0-.56-1.07,2.79,2.79,0,0,0-.94-.75,2.75,2.75,0,0,0-1.31-.29,2.71,2.71,0,0,0-1.28.29,3.23,3.23,0,0,0-1,.76,3.77,3.77,0,0,0-.83,2.33A3.57,3.57,0,0,0,85.74,19a3.48,3.48,0,0,0,.61,1.08,3.26,3.26,0,0,0,1,.77,2.83,2.83,0,0,0,1.28.29,2.87,2.87,0,0,0,1.31-.29,2.84,2.84,0,0,0,.94-.77A3.51,3.51,0,0,0,91.4,19,4.23,4.23,0,0,0,91.59,17.73ZM81.47,29.81V11.21h4v1.61h.08a5.21,5.21,0,0,1,1.62-1.39,4.91,4.91,0,0,1,2.45-.59A5.57,5.57,0,0,1,94,12.9a6.89,6.89,0,0,1,1.2,2.2,8.28,8.28,0,0,1,.42,2.63,8.58,8.58,0,0,1-.41,2.64,6.87,6.87,0,0,1-1.19,2.24,6,6,0,0,1-1.91,1.54,5.46,5.46,0,0,1-2.56.58,5.11,5.11,0,0,1-2.22-.49,4,4,0,0,1-1.64-1.33h-.06v2.57A4.27,4.27,0,0,1,81.47,29.81Z"/></svg>